<svg xmlns="http://www.w3.org/2000/svg" data-name="big logo" image-rendering="optimizeQuality"
    shape-rendering="geometricPrecision" text-rendering="geometricPrecision" viewBox="0 0 1113 1225">
    <path fill="#fff" fill-rule="evenodd"
        d="M620 0c53-1 107-2 149 11 57 17 91 54 134 85 94 66 184 137 210 271 12 61-16 146-32 183-7 17-19 32-21 53 19 36 36 75 44 123 9 48-7 100-18 135-40 129-142 264-310 206-33 38 0 108-21 139-6 9-17 13-30 16-68 16-63-63-119-68-10 13-35 27-58 17-29-12-42-37-80-44-19-3-35 5-47 10-44 20-132 36-184 14-26-10-46-41-26-73-35-49-59-80-77-149-60-13-99-37-120-90-46-119 25-279 88-329 19-15 39-32 71-35 14-185 65-288 176-375 32-24 59-52 98-69 33-14 74-19 112-27z"
        data-name="Color Fill 1" />
    <path fill="#786956" fill-rule="evenodd"
        d="M642 44c41 0 82 0 114 9 17 5 32 11 46 19l28 21 40 30c26 19 50 39 75 59l27 25c14 11 28 27 39 41 20 25 39 51 50 86 4 11 5 22 7 34l1 15v14c0 11 0 22-2 32-2 14-3 26-6 38-8 31-18 58-29 85l-19 44c-2 4-7 12-5 15 8 4 19 22 24 30 12 19 19 41 25 69 2 10 0 20 2 31 2 9 1 28-1 37l-2 28c-4 20-7 39-13 57-22 71-65 125-126 156-15 7-30 12-48 17-6 2-16 5-25 3-19-3-33-7-48-13-8-3-22-10-31-11-25 14-43 54-49 88l2 77a15 15 0 0 1-9 0c-5-1-6-4-10-11a183 183 0 0 0-17-19c-16-15-32-29-54-37-10-4-25-6-36-1-11 4-17 11-24 19h-1c-5-8-15-13-22-19-26-18-65-36-110-25-18 4-34 13-47 17l-35 7c-12 2-18 3-37 4h-47c-6-1-13-2-20-5a8 8 0 0 1-4-6c1 3 22 5 30 4a270 270 0 0 0 29-4c16-3 30-8 42-17 36-27 57-68 74-113 6-16 9-33 14-49s8-32 11-50a154 154 0 0 0 2-21c0-7 2-8 6 1 5 12 12 27 14 45l3-10c2-9 1-17 0-27l-3-40-1-14-4-30c-2-13-6-27 4-35a48 48 0 0 1 16-8c23-7 55 3 76 7 6 1 15 3 23 2l25-4c32-10 56-29 75-52 8-10 20-16 25-30 12-28-2-77-10-100a221 221 0 0 0-173-154l-18-1h-16l-15 1c-18 4-35 8-47 17-13 11-26 39-44 42l-4-12c-4-12-5-24-14-30s-27-3-37 0c-29 8-47 22-64 43l-17 17c-16 21-30 31-36 65a479 479 0 0 0 10 58c2 3 5 15 4 20-1 4-4 7-7 10-7 10-17 17-25 27-16 20-27 51-34 79-5 16-6 35-9 53l-1 24v31c0 8 2 34-2 36s-13 0-17-1c-17-3-29-9-41-17-20-15-32-36-39-64a250 250 0 0 1 23-171c3-3 5-11 10-11 4 2 4 11 4 17 0 15-3 30 1 43 8 0 8-11 10-17 4-12 12-37 26-37 2 5-3 18-5 22-4 15-4 33-4 50 0 7-1 24 3 26 10-5 13-32 16-44 6-18 12-36 21-51l25-37c4-5 16-25 10-35-3-4-11-2-16 0a49 49 0 0 0-14 6c-3 2-5 6-8 6-3 1-6-1-7-2 0-8 8-12 7-20-3-4-10-1-13 1-7 4-12 11-19 16-2 2-4 5-8 4l8-13c9-13 22-27 37-33 20-9 42-4 52-22 9-15 7-38 11-57 5-30 7-61 13-89l5-25a319 319 0 0 1 30-69c6-10 10-21 17-30l31-39c13-17 30-34 46-48 21-16 40-37 63-51 26-17 54-28 88-36 14-4 28-5 43-8l45-3 14-1zM470 307a17 17 0 0 0-14-16c-3-1-6 1-8 2 3-15 25-21 45-17 33 6 52 25 90 26-4-27-21-58-39-70-8-5-18-11-30-9 1-4 4-7 7-10l8-6c16-7 42-3 59 2 29 9 55 23 78 39 10 7 18 15 27 23 10 8 20 18 33 24 4 2 9 6 15 5 13-2 9-22 5-31-1-4-5-8 0-10 9-2 18 2 24 5 17 8 28 22 39 37 43 61 47 163 54 259l13 5c9 2 17 4 25 8l5-16 9-36c6-24 7-49 11-74l1-27 1-21v-16l-1-20v-50l-4-40c-9-39-25-67-45-93a175 175 0 0 0-26-26c-22-17-41-37-69-48-30-12-79-10-114-3-12 2-24 3-35 7-50 15-85 42-122 71s-79 68-98 113l-11 29c6 0 11-2 15-3l32-8c6-2 13-5 20-5zM318 498l-4 8-8 17c-7 17-11 35-16 54l-4 24h-1a18 18 0 0 0-10 0h-1c-5-8-6-28-3-40 5-25 15-46 34-58l13-5zm216 7 12 2-4 11-11 26-21 49c-4 9-8 19-14 25-11-1-15-12-24-15-1-9 6-27 8-35 8-24 15-44 34-57a46 46 0 0 1 13-5zm-197 98h-34c5-12 13-19 29-21 4 5 5 11 5 21zm65-7c5 0 25 1 27 3l2 12c0 2 3 9 1 11-11 12-38-4-47-8l-12-4h1c2-7 11-11 19-13zm451 28c0-13-11-15-23-17h-7l-9 8c-26 25-43 57-54 97-3 11-10 29-2 39 1 2 2 4 5 4 4-4 7-11 16-9 9 8 7 33 10 48l3 12c4-5 5-11 7-17l16-55c8-26 22-45 36-65a126 126 0 0 0 14-29c1-3 4-9 3-12-2-5-9-4-15-4zm-570 20c35-1 62 19 78 38l12 15a187 187 0 0 1 30 58c16 51 6 124-8 170-4 12-10 23-15 35-9 21-15 39-41 44a57 57 0 0 1-18 0l-14-3c-14-4-23-12-34-19-3-2-10-8-16-7-5 2-8 12-10 17l-4 12c-7 26 33 34 48 41v1c-5 2-9 7-15 8-9 3-19 0-25-3-19-8-29-26-39-43a295 295 0 0 1-24-48c-13-34-15-80-15-127 0-19-2-40 1-58 2-12 3-24 6-35 12-37 36-67 67-85a88 88 0 0 1 23-9zm620 5-6 1a52 52 0 0 0-12 7c-8 6-13 14-18 23-13 23-21 51-29 81-3 12-3 25-5 37-1 6-1 14 3 16 5 2 10-3 12-6l4-14 8-31c9-27 22-47 37-67 7-8 17-14 23-23 8-13-4-25-17-24z" />
</svg>
